<mxfile host="Electron" modified="2023-12-28T04:38:36.786Z" agent="Mozilla/5.0 (Windows NT 10.0; Win64; x64) AppleWebKit/537.36 (KHTML, like Gecko) draw.io/22.0.2 Chrome/114.0.5735.289 Electron/25.8.4 Safari/537.36" etag="2D8q0Sg_Z-5sJQgrRV_2" version="22.0.2" type="device">
  <diagram name="Page-1" id="3KGW7BVF_NaHDklarH6-">
    <mxGraphModel dx="2085" dy="1831" grid="1" gridSize="10" guides="1" tooltips="1" connect="1" arrows="1" fold="1" page="1" pageScale="1" pageWidth="850" pageHeight="1100" math="0" shadow="0">
      <root>
        <mxCell id="0" />
        <mxCell id="1" parent="0" />
        <mxCell id="Jl9rDmlM_b9wm3iLBG_Z-1" value="Project" style="rounded=0;whiteSpace=wrap;html=1;fillColor=#d5e8d4;strokeColor=#82b366;" vertex="1" parent="1">
          <mxGeometry x="120" y="190" width="120" height="60" as="geometry" />
        </mxCell>
        <mxCell id="Jl9rDmlM_b9wm3iLBG_Z-4" value="Manager" style="rounded=0;whiteSpace=wrap;html=1;fillColor=#d5e8d4;strokeColor=#82b366;" vertex="1" parent="1">
          <mxGeometry x="670" y="190" width="120" height="60" as="geometry" />
        </mxCell>
        <mxCell id="Jl9rDmlM_b9wm3iLBG_Z-9" value="Employee" style="rounded=0;whiteSpace=wrap;html=1;fillColor=#d5e8d4;strokeColor=#82b366;" vertex="1" parent="1">
          <mxGeometry x="120" y="580" width="120" height="60" as="geometry" />
        </mxCell>
        <mxCell id="Jl9rDmlM_b9wm3iLBG_Z-10" value="Join" style="rhombus;whiteSpace=wrap;html=1;" vertex="1" parent="1">
          <mxGeometry x="140" y="383" width="80" height="80" as="geometry" />
        </mxCell>
        <mxCell id="Jl9rDmlM_b9wm3iLBG_Z-11" value="" style="endArrow=none;html=1;rounded=0;exitX=0.5;exitY=0;exitDx=0;exitDy=0;entryX=0.5;entryY=1;entryDx=0;entryDy=0;" edge="1" parent="1" source="Jl9rDmlM_b9wm3iLBG_Z-9" target="Jl9rDmlM_b9wm3iLBG_Z-10">
          <mxGeometry width="50" height="50" relative="1" as="geometry">
            <mxPoint x="200" y="420" as="sourcePoint" />
            <mxPoint x="260" y="370" as="targetPoint" />
          </mxGeometry>
        </mxCell>
        <mxCell id="Jl9rDmlM_b9wm3iLBG_Z-12" value="" style="endArrow=none;html=1;rounded=0;exitX=0.5;exitY=0;exitDx=0;exitDy=0;entryX=0.5;entryY=1;entryDx=0;entryDy=0;" edge="1" parent="1" source="Jl9rDmlM_b9wm3iLBG_Z-10" target="Jl9rDmlM_b9wm3iLBG_Z-1">
          <mxGeometry width="50" height="50" relative="1" as="geometry">
            <mxPoint x="210" y="330" as="sourcePoint" />
            <mxPoint x="210" y="270" as="targetPoint" />
          </mxGeometry>
        </mxCell>
        <mxCell id="Jl9rDmlM_b9wm3iLBG_Z-13" value="n" style="text;html=1;align=center;verticalAlign=middle;resizable=0;points=[];autosize=1;strokeColor=none;fillColor=none;" vertex="1" parent="1">
          <mxGeometry x="180" y="550" width="30" height="30" as="geometry" />
        </mxCell>
        <mxCell id="Jl9rDmlM_b9wm3iLBG_Z-14" value="n" style="text;html=1;align=center;verticalAlign=middle;resizable=0;points=[];autosize=1;strokeColor=none;fillColor=none;" vertex="1" parent="1">
          <mxGeometry x="150" y="250" width="30" height="30" as="geometry" />
        </mxCell>
        <mxCell id="Jl9rDmlM_b9wm3iLBG_Z-15" value="Department" style="rounded=0;whiteSpace=wrap;html=1;fillColor=#d5e8d4;strokeColor=#82b366;" vertex="1" parent="1">
          <mxGeometry x="670" y="580" width="120" height="60" as="geometry" />
        </mxCell>
        <mxCell id="Jl9rDmlM_b9wm3iLBG_Z-16" value="Belong" style="rhombus;whiteSpace=wrap;html=1;" vertex="1" parent="1">
          <mxGeometry x="400" y="570" width="80" height="80" as="geometry" />
        </mxCell>
        <mxCell id="Jl9rDmlM_b9wm3iLBG_Z-17" value="" style="endArrow=none;html=1;rounded=0;exitX=1;exitY=0.5;exitDx=0;exitDy=0;entryX=0;entryY=0.5;entryDx=0;entryDy=0;" edge="1" parent="1" source="Jl9rDmlM_b9wm3iLBG_Z-9" target="Jl9rDmlM_b9wm3iLBG_Z-16">
          <mxGeometry width="50" height="50" relative="1" as="geometry">
            <mxPoint x="260" y="570" as="sourcePoint" />
            <mxPoint x="310" y="520" as="targetPoint" />
          </mxGeometry>
        </mxCell>
        <mxCell id="Jl9rDmlM_b9wm3iLBG_Z-18" value="" style="endArrow=none;html=1;rounded=0;exitX=1;exitY=0.5;exitDx=0;exitDy=0;entryX=0;entryY=0.5;entryDx=0;entryDy=0;" edge="1" parent="1" source="Jl9rDmlM_b9wm3iLBG_Z-16" target="Jl9rDmlM_b9wm3iLBG_Z-15">
          <mxGeometry width="50" height="50" relative="1" as="geometry">
            <mxPoint x="480" y="650" as="sourcePoint" />
            <mxPoint x="640" y="650" as="targetPoint" />
          </mxGeometry>
        </mxCell>
        <mxCell id="Jl9rDmlM_b9wm3iLBG_Z-19" value="" style="endArrow=none;html=1;rounded=0;entryX=0.5;entryY=1;entryDx=0;entryDy=0;exitX=0.5;exitY=0;exitDx=0;exitDy=0;" edge="1" parent="1" source="Jl9rDmlM_b9wm3iLBG_Z-20" target="Jl9rDmlM_b9wm3iLBG_Z-4">
          <mxGeometry width="50" height="50" relative="1" as="geometry">
            <mxPoint x="730" y="370" as="sourcePoint" />
            <mxPoint x="780" y="360" as="targetPoint" />
          </mxGeometry>
        </mxCell>
        <mxCell id="Jl9rDmlM_b9wm3iLBG_Z-20" value="Manager" style="rhombus;whiteSpace=wrap;html=1;" vertex="1" parent="1">
          <mxGeometry x="690" y="383" width="80" height="80" as="geometry" />
        </mxCell>
        <mxCell id="Jl9rDmlM_b9wm3iLBG_Z-21" value="" style="endArrow=none;html=1;rounded=0;entryX=0.5;entryY=1;entryDx=0;entryDy=0;exitX=0.5;exitY=0;exitDx=0;exitDy=0;" edge="1" parent="1" source="Jl9rDmlM_b9wm3iLBG_Z-15" target="Jl9rDmlM_b9wm3iLBG_Z-20">
          <mxGeometry width="50" height="50" relative="1" as="geometry">
            <mxPoint x="800" y="533" as="sourcePoint" />
            <mxPoint x="800" y="400" as="targetPoint" />
          </mxGeometry>
        </mxCell>
        <mxCell id="Jl9rDmlM_b9wm3iLBG_Z-22" value="1" style="text;html=1;align=center;verticalAlign=middle;resizable=0;points=[];autosize=1;strokeColor=none;fillColor=none;" vertex="1" parent="1">
          <mxGeometry x="730" y="250" width="30" height="30" as="geometry" />
        </mxCell>
        <mxCell id="Jl9rDmlM_b9wm3iLBG_Z-23" value="1" style="text;html=1;align=center;verticalAlign=middle;resizable=0;points=[];autosize=1;strokeColor=none;fillColor=none;" vertex="1" parent="1">
          <mxGeometry x="730" y="550" width="30" height="30" as="geometry" />
        </mxCell>
        <mxCell id="Jl9rDmlM_b9wm3iLBG_Z-24" value="Request" style="rounded=0;whiteSpace=wrap;html=1;fillColor=#d5e8d4;strokeColor=#82b366;" vertex="1" parent="1">
          <mxGeometry x="-430" y="580" width="120" height="60" as="geometry" />
        </mxCell>
        <mxCell id="Jl9rDmlM_b9wm3iLBG_Z-25" value="Have" style="rhombus;whiteSpace=wrap;html=1;" vertex="1" parent="1">
          <mxGeometry x="-150" y="570" width="80" height="80" as="geometry" />
        </mxCell>
        <mxCell id="Jl9rDmlM_b9wm3iLBG_Z-26" value="" style="endArrow=none;html=1;rounded=0;entryX=0;entryY=0.5;entryDx=0;entryDy=0;exitX=1;exitY=0.5;exitDx=0;exitDy=0;" edge="1" parent="1" source="Jl9rDmlM_b9wm3iLBG_Z-25" target="Jl9rDmlM_b9wm3iLBG_Z-9">
          <mxGeometry width="50" height="50" relative="1" as="geometry">
            <mxPoint x="-110" y="540" as="sourcePoint" />
            <mxPoint x="-60" y="490" as="targetPoint" />
          </mxGeometry>
        </mxCell>
        <mxCell id="Jl9rDmlM_b9wm3iLBG_Z-27" value="" style="endArrow=none;html=1;rounded=0;entryX=0;entryY=0.5;entryDx=0;entryDy=0;exitX=1;exitY=0.5;exitDx=0;exitDy=0;" edge="1" parent="1" source="Jl9rDmlM_b9wm3iLBG_Z-24" target="Jl9rDmlM_b9wm3iLBG_Z-25">
          <mxGeometry width="50" height="50" relative="1" as="geometry">
            <mxPoint x="-280" y="510" as="sourcePoint" />
            <mxPoint x="-130" y="510" as="targetPoint" />
          </mxGeometry>
        </mxCell>
        <mxCell id="Jl9rDmlM_b9wm3iLBG_Z-28" value="1" style="text;html=1;align=center;verticalAlign=middle;resizable=0;points=[];autosize=1;strokeColor=none;fillColor=none;" vertex="1" parent="1">
          <mxGeometry x="90" y="580" width="30" height="30" as="geometry" />
        </mxCell>
        <mxCell id="Jl9rDmlM_b9wm3iLBG_Z-29" value="n" style="text;html=1;align=center;verticalAlign=middle;resizable=0;points=[];autosize=1;strokeColor=none;fillColor=none;" vertex="1" parent="1">
          <mxGeometry x="-310" y="580" width="30" height="30" as="geometry" />
        </mxCell>
        <mxCell id="Jl9rDmlM_b9wm3iLBG_Z-30" value="approve" style="rhombus;whiteSpace=wrap;html=1;" vertex="1" parent="1">
          <mxGeometry x="-210" y="-50" width="80" height="80" as="geometry" />
        </mxCell>
        <mxCell id="Jl9rDmlM_b9wm3iLBG_Z-31" value="" style="endArrow=none;html=1;rounded=0;exitX=0.25;exitY=0;exitDx=0;exitDy=0;entryX=1;entryY=0.5;entryDx=0;entryDy=0;" edge="1" parent="1" source="Jl9rDmlM_b9wm3iLBG_Z-4" target="Jl9rDmlM_b9wm3iLBG_Z-30">
          <mxGeometry width="50" height="50" relative="1" as="geometry">
            <mxPoint x="490" y="40" as="sourcePoint" />
            <mxPoint x="540" y="-10" as="targetPoint" />
            <Array as="points">
              <mxPoint x="700" y="-10" />
            </Array>
          </mxGeometry>
        </mxCell>
        <mxCell id="Jl9rDmlM_b9wm3iLBG_Z-32" value="" style="endArrow=none;html=1;rounded=0;exitX=0;exitY=0.5;exitDx=0;exitDy=0;entryX=0.5;entryY=0;entryDx=0;entryDy=0;" edge="1" parent="1" source="Jl9rDmlM_b9wm3iLBG_Z-30" target="Jl9rDmlM_b9wm3iLBG_Z-24">
          <mxGeometry width="50" height="50" relative="1" as="geometry">
            <mxPoint x="-440" y="110" as="sourcePoint" />
            <mxPoint x="-390" y="60" as="targetPoint" />
            <Array as="points">
              <mxPoint x="-370" y="-10" />
            </Array>
          </mxGeometry>
        </mxCell>
        <mxCell id="Jl9rDmlM_b9wm3iLBG_Z-33" value="1" style="text;html=1;align=center;verticalAlign=middle;resizable=0;points=[];autosize=1;strokeColor=none;fillColor=none;" vertex="1" parent="1">
          <mxGeometry x="700" y="160" width="30" height="30" as="geometry" />
        </mxCell>
        <mxCell id="Jl9rDmlM_b9wm3iLBG_Z-34" value="n" style="text;html=1;align=center;verticalAlign=middle;resizable=0;points=[];autosize=1;strokeColor=none;fillColor=none;" vertex="1" parent="1">
          <mxGeometry x="-400" y="550" width="30" height="30" as="geometry" />
        </mxCell>
        <mxCell id="Jl9rDmlM_b9wm3iLBG_Z-35" value="Have" style="rhombus;whiteSpace=wrap;html=1;" vertex="1" parent="1">
          <mxGeometry x="140" y="770" width="80" height="80" as="geometry" />
        </mxCell>
        <mxCell id="Jl9rDmlM_b9wm3iLBG_Z-36" value="" style="endArrow=none;html=1;rounded=0;entryX=0.5;entryY=1;entryDx=0;entryDy=0;exitX=0.5;exitY=0;exitDx=0;exitDy=0;" edge="1" parent="1" source="Jl9rDmlM_b9wm3iLBG_Z-35" target="Jl9rDmlM_b9wm3iLBG_Z-9">
          <mxGeometry width="50" height="50" relative="1" as="geometry">
            <mxPoint x="60" y="870" as="sourcePoint" />
            <mxPoint x="100" y="700" as="targetPoint" />
          </mxGeometry>
        </mxCell>
        <mxCell id="Jl9rDmlM_b9wm3iLBG_Z-37" value="" style="endArrow=none;html=1;rounded=0;entryX=1;entryY=0.5;entryDx=0;entryDy=0;exitX=1;exitY=0.5;exitDx=0;exitDy=0;" edge="1" parent="1" source="Jl9rDmlM_b9wm3iLBG_Z-35" target="Jl9rDmlM_b9wm3iLBG_Z-4">
          <mxGeometry width="50" height="50" relative="1" as="geometry">
            <mxPoint x="950" y="550" as="sourcePoint" />
            <mxPoint x="1000" y="450" as="targetPoint" />
            <Array as="points">
              <mxPoint x="1470" y="810" />
              <mxPoint x="1470" y="220" />
            </Array>
          </mxGeometry>
        </mxCell>
        <mxCell id="Jl9rDmlM_b9wm3iLBG_Z-38" value="" style="endArrow=none;html=1;rounded=0;entryX=0.5;entryY=1;entryDx=0;entryDy=0;exitX=0.5;exitY=0;exitDx=0;exitDy=0;" edge="1" parent="1" source="Jl9rDmlM_b9wm3iLBG_Z-39" target="Jl9rDmlM_b9wm3iLBG_Z-35">
          <mxGeometry width="50" height="50" relative="1" as="geometry">
            <mxPoint x="180" y="950" as="sourcePoint" />
            <mxPoint x="130" y="930" as="targetPoint" />
          </mxGeometry>
        </mxCell>
        <mxCell id="Jl9rDmlM_b9wm3iLBG_Z-39" value="Time keeping" style="rounded=0;whiteSpace=wrap;html=1;fillColor=#d5e8d4;strokeColor=#82b366;" vertex="1" parent="1">
          <mxGeometry x="120" y="990" width="120" height="60" as="geometry" />
        </mxCell>
        <mxCell id="Jl9rDmlM_b9wm3iLBG_Z-40" value="Manager" style="rhombus;whiteSpace=wrap;html=1;" vertex="1" parent="1">
          <mxGeometry x="410" y="383" width="80" height="80" as="geometry" />
        </mxCell>
        <mxCell id="Jl9rDmlM_b9wm3iLBG_Z-41" value="" style="endArrow=none;html=1;rounded=0;exitX=1;exitY=1;exitDx=0;exitDy=0;entryX=0;entryY=0;entryDx=0;entryDy=0;" edge="1" parent="1" source="Jl9rDmlM_b9wm3iLBG_Z-1" target="Jl9rDmlM_b9wm3iLBG_Z-40">
          <mxGeometry width="50" height="50" relative="1" as="geometry">
            <mxPoint x="270" y="370" as="sourcePoint" />
            <mxPoint x="320" y="320" as="targetPoint" />
          </mxGeometry>
        </mxCell>
        <mxCell id="Jl9rDmlM_b9wm3iLBG_Z-42" value="" style="endArrow=none;html=1;rounded=0;exitX=1;exitY=1;exitDx=0;exitDy=0;entryX=0;entryY=0;entryDx=0;entryDy=0;" edge="1" parent="1" source="Jl9rDmlM_b9wm3iLBG_Z-40" target="Jl9rDmlM_b9wm3iLBG_Z-15">
          <mxGeometry width="50" height="50" relative="1" as="geometry">
            <mxPoint x="490" y="400" as="sourcePoint" />
            <mxPoint x="670" y="560" as="targetPoint" />
          </mxGeometry>
        </mxCell>
        <mxCell id="Jl9rDmlM_b9wm3iLBG_Z-44" value="1" style="text;html=1;align=center;verticalAlign=middle;resizable=0;points=[];autosize=1;strokeColor=none;fillColor=none;" vertex="1" parent="1">
          <mxGeometry x="640" y="535" width="30" height="30" as="geometry" />
        </mxCell>
        <mxCell id="Jl9rDmlM_b9wm3iLBG_Z-45" value="n" style="text;html=1;align=center;verticalAlign=middle;resizable=0;points=[];autosize=1;strokeColor=none;fillColor=none;" vertex="1" parent="1">
          <mxGeometry x="270" y="250" width="30" height="30" as="geometry" />
        </mxCell>
        <mxCell id="Jl9rDmlM_b9wm3iLBG_Z-47" value="&lt;u&gt;Id&lt;/u&gt;" style="ellipse;whiteSpace=wrap;html=1;" vertex="1" parent="1">
          <mxGeometry x="300" y="160" width="70" height="50" as="geometry" />
        </mxCell>
        <mxCell id="Jl9rDmlM_b9wm3iLBG_Z-48" value="Name" style="ellipse;whiteSpace=wrap;html=1;" vertex="1" parent="1">
          <mxGeometry x="-90" y="230" width="70" height="50" as="geometry" />
        </mxCell>
        <mxCell id="Jl9rDmlM_b9wm3iLBG_Z-49" value="&lt;u&gt;idDepartment&lt;/u&gt;" style="ellipse;whiteSpace=wrap;html=1;" vertex="1" parent="1">
          <mxGeometry x="220" y="70" width="120" height="70" as="geometry" />
        </mxCell>
        <mxCell id="Jl9rDmlM_b9wm3iLBG_Z-50" value="nameCustomer" style="ellipse;whiteSpace=wrap;html=1;" vertex="1" parent="1">
          <mxGeometry x="-10" y="90" width="120" height="60" as="geometry" />
        </mxCell>
        <mxCell id="Jl9rDmlM_b9wm3iLBG_Z-51" value="Date" style="ellipse;whiteSpace=wrap;html=1;" vertex="1" parent="1">
          <mxGeometry x="-40" y="300" width="60" height="50" as="geometry" />
        </mxCell>
        <mxCell id="Jl9rDmlM_b9wm3iLBG_Z-52" value="nameManager" style="ellipse;whiteSpace=wrap;html=1;" vertex="1" parent="1">
          <mxGeometry x="-90" y="155" width="100" height="60" as="geometry" />
        </mxCell>
        <mxCell id="Jl9rDmlM_b9wm3iLBG_Z-53" value="&lt;u&gt;idManager&lt;/u&gt;" style="ellipse;whiteSpace=wrap;html=1;" vertex="1" parent="1">
          <mxGeometry x="100" y="45" width="100" height="60" as="geometry" />
        </mxCell>
        <mxCell id="Jl9rDmlM_b9wm3iLBG_Z-54" value="" style="endArrow=none;html=1;rounded=0;" edge="1" parent="1">
          <mxGeometry width="50" height="50" relative="1" as="geometry">
            <mxPoint x="244" y="114.17000000000002" as="sourcePoint" />
            <mxPoint x="314" y="114.17000000000002" as="targetPoint" />
          </mxGeometry>
        </mxCell>
        <mxCell id="Jl9rDmlM_b9wm3iLBG_Z-55" value="" style="endArrow=none;html=1;rounded=0;" edge="1" parent="1">
          <mxGeometry width="50" height="50" relative="1" as="geometry">
            <mxPoint x="120" y="84.58" as="sourcePoint" />
            <mxPoint x="180" y="84.58" as="targetPoint" />
          </mxGeometry>
        </mxCell>
        <mxCell id="Jl9rDmlM_b9wm3iLBG_Z-56" value="" style="endArrow=none;html=1;rounded=0;entryX=0;entryY=0.5;entryDx=0;entryDy=0;" edge="1" parent="1" target="Jl9rDmlM_b9wm3iLBG_Z-47">
          <mxGeometry width="50" height="50" relative="1" as="geometry">
            <mxPoint x="240" y="220" as="sourcePoint" />
            <mxPoint x="290" y="170" as="targetPoint" />
          </mxGeometry>
        </mxCell>
        <mxCell id="Jl9rDmlM_b9wm3iLBG_Z-57" value="" style="endArrow=none;html=1;rounded=0;entryX=0.329;entryY=1.014;entryDx=0;entryDy=0;exitX=1;exitY=0;exitDx=0;exitDy=0;entryPerimeter=0;" edge="1" parent="1" source="Jl9rDmlM_b9wm3iLBG_Z-1" target="Jl9rDmlM_b9wm3iLBG_Z-49">
          <mxGeometry width="50" height="50" relative="1" as="geometry">
            <mxPoint x="250" y="230" as="sourcePoint" />
            <mxPoint x="310" y="195" as="targetPoint" />
          </mxGeometry>
        </mxCell>
        <mxCell id="Jl9rDmlM_b9wm3iLBG_Z-58" value="" style="endArrow=none;html=1;rounded=0;entryX=0.5;entryY=1;entryDx=0;entryDy=0;exitX=0.5;exitY=0;exitDx=0;exitDy=0;" edge="1" parent="1" source="Jl9rDmlM_b9wm3iLBG_Z-1" target="Jl9rDmlM_b9wm3iLBG_Z-53">
          <mxGeometry width="50" height="50" relative="1" as="geometry">
            <mxPoint x="260" y="240" as="sourcePoint" />
            <mxPoint x="320" y="205" as="targetPoint" />
          </mxGeometry>
        </mxCell>
        <mxCell id="Jl9rDmlM_b9wm3iLBG_Z-59" value="" style="endArrow=none;html=1;rounded=0;entryX=0.967;entryY=0.756;entryDx=0;entryDy=0;exitX=0.25;exitY=0;exitDx=0;exitDy=0;entryPerimeter=0;" edge="1" parent="1" source="Jl9rDmlM_b9wm3iLBG_Z-1" target="Jl9rDmlM_b9wm3iLBG_Z-50">
          <mxGeometry width="50" height="50" relative="1" as="geometry">
            <mxPoint x="270" y="250" as="sourcePoint" />
            <mxPoint x="330" y="215" as="targetPoint" />
          </mxGeometry>
        </mxCell>
        <mxCell id="Jl9rDmlM_b9wm3iLBG_Z-60" value="" style="endArrow=none;html=1;rounded=0;entryX=0.991;entryY=0.724;entryDx=0;entryDy=0;exitX=0;exitY=0.5;exitDx=0;exitDy=0;entryPerimeter=0;" edge="1" parent="1" source="Jl9rDmlM_b9wm3iLBG_Z-1" target="Jl9rDmlM_b9wm3iLBG_Z-52">
          <mxGeometry width="50" height="50" relative="1" as="geometry">
            <mxPoint x="280" y="260" as="sourcePoint" />
            <mxPoint x="340" y="225" as="targetPoint" />
          </mxGeometry>
        </mxCell>
        <mxCell id="Jl9rDmlM_b9wm3iLBG_Z-61" value="" style="endArrow=none;html=1;rounded=0;entryX=1;entryY=0;entryDx=0;entryDy=0;exitX=0;exitY=1;exitDx=0;exitDy=0;" edge="1" parent="1" source="Jl9rDmlM_b9wm3iLBG_Z-1" target="Jl9rDmlM_b9wm3iLBG_Z-51">
          <mxGeometry width="50" height="50" relative="1" as="geometry">
            <mxPoint x="290" y="270" as="sourcePoint" />
            <mxPoint x="350" y="235" as="targetPoint" />
          </mxGeometry>
        </mxCell>
        <mxCell id="Jl9rDmlM_b9wm3iLBG_Z-62" value="" style="endArrow=none;html=1;rounded=0;entryX=1;entryY=0.5;entryDx=0;entryDy=0;exitX=0;exitY=0.75;exitDx=0;exitDy=0;" edge="1" parent="1" source="Jl9rDmlM_b9wm3iLBG_Z-1" target="Jl9rDmlM_b9wm3iLBG_Z-48">
          <mxGeometry width="50" height="50" relative="1" as="geometry">
            <mxPoint x="300" y="280" as="sourcePoint" />
            <mxPoint x="360" y="245" as="targetPoint" />
          </mxGeometry>
        </mxCell>
        <mxCell id="Jl9rDmlM_b9wm3iLBG_Z-64" value="" style="endArrow=none;html=1;rounded=0;exitX=1;exitY=0.5;exitDx=0;exitDy=0;entryX=0;entryY=0.5;entryDx=0;entryDy=0;" edge="1" parent="1" source="Jl9rDmlM_b9wm3iLBG_Z-15" target="Jl9rDmlM_b9wm3iLBG_Z-65">
          <mxGeometry width="50" height="50" relative="1" as="geometry">
            <mxPoint x="860" y="570" as="sourcePoint" />
            <mxPoint x="870" y="610" as="targetPoint" />
          </mxGeometry>
        </mxCell>
        <mxCell id="Jl9rDmlM_b9wm3iLBG_Z-65" value="Have" style="rhombus;whiteSpace=wrap;html=1;" vertex="1" parent="1">
          <mxGeometry x="950" y="570" width="80" height="80" as="geometry" />
        </mxCell>
        <mxCell id="Jl9rDmlM_b9wm3iLBG_Z-66" value="" style="endArrow=none;html=1;rounded=0;exitX=1;exitY=0.5;exitDx=0;exitDy=0;entryX=0;entryY=0.5;entryDx=0;entryDy=0;" edge="1" parent="1" source="Jl9rDmlM_b9wm3iLBG_Z-65" target="Jl9rDmlM_b9wm3iLBG_Z-67">
          <mxGeometry width="50" height="50" relative="1" as="geometry">
            <mxPoint x="1070" y="560" as="sourcePoint" />
            <mxPoint x="1110" y="610" as="targetPoint" />
          </mxGeometry>
        </mxCell>
        <mxCell id="Jl9rDmlM_b9wm3iLBG_Z-67" value="Position" style="rounded=0;whiteSpace=wrap;html=1;fillColor=#d5e8d4;strokeColor=#82b366;" vertex="1" parent="1">
          <mxGeometry x="1200" y="580" width="120" height="60" as="geometry" />
        </mxCell>
        <mxCell id="Jl9rDmlM_b9wm3iLBG_Z-68" value="" style="endArrow=none;html=1;rounded=0;exitX=0.4;exitY=0.002;exitDx=0;exitDy=0;exitPerimeter=0;entryX=0.5;entryY=1;entryDx=0;entryDy=0;" edge="1" parent="1" source="Jl9rDmlM_b9wm3iLBG_Z-67" target="Jl9rDmlM_b9wm3iLBG_Z-70">
          <mxGeometry width="50" height="50" relative="1" as="geometry">
            <mxPoint x="1230" y="490" as="sourcePoint" />
            <mxPoint x="1230" y="500" as="targetPoint" />
          </mxGeometry>
        </mxCell>
        <mxCell id="Jl9rDmlM_b9wm3iLBG_Z-70" value="&lt;u&gt;Id&lt;/u&gt;" style="ellipse;whiteSpace=wrap;html=1;" vertex="1" parent="1">
          <mxGeometry x="1180" y="470" width="70" height="50" as="geometry" />
        </mxCell>
        <mxCell id="Jl9rDmlM_b9wm3iLBG_Z-71" value="Name" style="ellipse;whiteSpace=wrap;html=1;" vertex="1" parent="1">
          <mxGeometry x="1280" y="470" width="70" height="50" as="geometry" />
        </mxCell>
        <mxCell id="Jl9rDmlM_b9wm3iLBG_Z-72" value="" style="endArrow=none;html=1;rounded=0;exitX=0.5;exitY=0;exitDx=0;exitDy=0;entryX=0.5;entryY=1;entryDx=0;entryDy=0;" edge="1" parent="1" source="Jl9rDmlM_b9wm3iLBG_Z-67" target="Jl9rDmlM_b9wm3iLBG_Z-71">
          <mxGeometry width="50" height="50" relative="1" as="geometry">
            <mxPoint x="1258" y="590" as="sourcePoint" />
            <mxPoint x="1225" y="530" as="targetPoint" />
          </mxGeometry>
        </mxCell>
        <mxCell id="Jl9rDmlM_b9wm3iLBG_Z-73" value="1" style="text;html=1;align=center;verticalAlign=middle;resizable=0;points=[];autosize=1;strokeColor=none;fillColor=none;" vertex="1" parent="1">
          <mxGeometry x="790" y="610" width="30" height="30" as="geometry" />
        </mxCell>
        <mxCell id="Jl9rDmlM_b9wm3iLBG_Z-74" value="n" style="text;html=1;align=center;verticalAlign=middle;resizable=0;points=[];autosize=1;strokeColor=none;fillColor=none;" vertex="1" parent="1">
          <mxGeometry x="1170" y="610" width="30" height="30" as="geometry" />
        </mxCell>
        <mxCell id="Jl9rDmlM_b9wm3iLBG_Z-75" value="" style="endArrow=none;html=1;rounded=0;exitX=0.5;exitY=0;exitDx=0;exitDy=0;entryX=0.613;entryY=1.003;entryDx=0;entryDy=0;entryPerimeter=0;" edge="1" parent="1" source="Jl9rDmlM_b9wm3iLBG_Z-77" target="Jl9rDmlM_b9wm3iLBG_Z-39">
          <mxGeometry width="50" height="50" relative="1" as="geometry">
            <mxPoint x="130" y="1080" as="sourcePoint" />
            <mxPoint x="200" y="1040" as="targetPoint" />
          </mxGeometry>
        </mxCell>
        <mxCell id="Jl9rDmlM_b9wm3iLBG_Z-77" value="Check in" style="ellipse;whiteSpace=wrap;html=1;" vertex="1" parent="1">
          <mxGeometry x="190" y="1120" width="70" height="50" as="geometry" />
        </mxCell>
        <mxCell id="Jl9rDmlM_b9wm3iLBG_Z-78" value="Check out" style="ellipse;whiteSpace=wrap;html=1;" vertex="1" parent="1">
          <mxGeometry x="300" y="1120" width="70" height="50" as="geometry" />
        </mxCell>
        <mxCell id="Jl9rDmlM_b9wm3iLBG_Z-79" value="" style="endArrow=none;html=1;rounded=0;entryX=0.75;entryY=1;entryDx=0;entryDy=0;exitX=0;exitY=0;exitDx=0;exitDy=0;" edge="1" parent="1" source="Jl9rDmlM_b9wm3iLBG_Z-78" target="Jl9rDmlM_b9wm3iLBG_Z-39">
          <mxGeometry width="50" height="50" relative="1" as="geometry">
            <mxPoint x="178" y="1126" as="sourcePoint" />
            <mxPoint x="230" y="1050" as="targetPoint" />
          </mxGeometry>
        </mxCell>
        <mxCell id="Jl9rDmlM_b9wm3iLBG_Z-80" value="" style="endArrow=none;html=1;rounded=0;entryX=0;entryY=1;entryDx=0;entryDy=0;exitX=0.96;exitY=0.28;exitDx=0;exitDy=0;exitPerimeter=0;" edge="1" parent="1" source="Jl9rDmlM_b9wm3iLBG_Z-81" target="Jl9rDmlM_b9wm3iLBG_Z-39">
          <mxGeometry width="50" height="50" relative="1" as="geometry">
            <mxPoint x="60" y="1110" as="sourcePoint" />
            <mxPoint x="40" y="1090" as="targetPoint" />
          </mxGeometry>
        </mxCell>
        <mxCell id="Jl9rDmlM_b9wm3iLBG_Z-81" value="&lt;u&gt;idEmployee&lt;/u&gt;" style="ellipse;whiteSpace=wrap;html=1;" vertex="1" parent="1">
          <mxGeometry x="-200" y="1050" width="100" height="50" as="geometry" />
        </mxCell>
        <mxCell id="Jl9rDmlM_b9wm3iLBG_Z-82" value="" style="endArrow=none;html=1;rounded=0;" edge="1" parent="1">
          <mxGeometry width="50" height="50" relative="1" as="geometry">
            <mxPoint x="-181" y="1083" as="sourcePoint" />
            <mxPoint x="-121" y="1083" as="targetPoint" />
          </mxGeometry>
        </mxCell>
        <mxCell id="Jl9rDmlM_b9wm3iLBG_Z-83" value="nameEmployee" style="ellipse;whiteSpace=wrap;html=1;" vertex="1" parent="1">
          <mxGeometry x="-20" y="1120" width="120" height="50" as="geometry" />
        </mxCell>
        <mxCell id="Jl9rDmlM_b9wm3iLBG_Z-84" value="" style="endArrow=none;html=1;rounded=0;entryX=0.5;entryY=1;entryDx=0;entryDy=0;exitX=0.5;exitY=0;exitDx=0;exitDy=0;" edge="1" parent="1" source="Jl9rDmlM_b9wm3iLBG_Z-83" target="Jl9rDmlM_b9wm3iLBG_Z-39">
          <mxGeometry width="50" height="50" relative="1" as="geometry">
            <mxPoint x="-44" y="1124" as="sourcePoint" />
            <mxPoint x="190" y="1060" as="targetPoint" />
          </mxGeometry>
        </mxCell>
        <mxCell id="Jl9rDmlM_b9wm3iLBG_Z-85" value="Date" style="ellipse;whiteSpace=wrap;html=1;" vertex="1" parent="1">
          <mxGeometry x="110" y="1120" width="70" height="50" as="geometry" />
        </mxCell>
        <mxCell id="Jl9rDmlM_b9wm3iLBG_Z-86" value="" style="endArrow=none;html=1;rounded=0;exitX=0.5;exitY=0;exitDx=0;exitDy=0;entryX=0.5;entryY=1;entryDx=0;entryDy=0;" edge="1" parent="1" source="Jl9rDmlM_b9wm3iLBG_Z-85" target="Jl9rDmlM_b9wm3iLBG_Z-39">
          <mxGeometry width="50" height="50" relative="1" as="geometry">
            <mxPoint x="-20" y="1020" as="sourcePoint" />
            <mxPoint x="30" y="970" as="targetPoint" />
          </mxGeometry>
        </mxCell>
        <mxCell id="Jl9rDmlM_b9wm3iLBG_Z-87" value="1" style="text;html=1;align=center;verticalAlign=middle;resizable=0;points=[];autosize=1;strokeColor=none;fillColor=none;" vertex="1" parent="1">
          <mxGeometry x="185" y="648" width="30" height="30" as="geometry" />
        </mxCell>
        <mxCell id="Jl9rDmlM_b9wm3iLBG_Z-88" value="1" style="text;html=1;align=center;verticalAlign=middle;resizable=0;points=[];autosize=1;strokeColor=none;fillColor=none;" vertex="1" parent="1">
          <mxGeometry x="180" y="948" width="30" height="30" as="geometry" />
        </mxCell>
        <mxCell id="Jl9rDmlM_b9wm3iLBG_Z-89" value="1" style="text;html=1;align=center;verticalAlign=middle;resizable=0;points=[];autosize=1;strokeColor=none;fillColor=none;" vertex="1" parent="1">
          <mxGeometry x="950" y="190" width="30" height="30" as="geometry" />
        </mxCell>
        <mxCell id="Jl9rDmlM_b9wm3iLBG_Z-90" value="" style="endArrow=none;html=1;rounded=0;exitX=0.61;exitY=0.015;exitDx=0;exitDy=0;exitPerimeter=0;entryX=0.5;entryY=1;entryDx=0;entryDy=0;" edge="1" parent="1" source="Jl9rDmlM_b9wm3iLBG_Z-4" target="Jl9rDmlM_b9wm3iLBG_Z-91">
          <mxGeometry width="50" height="50" relative="1" as="geometry">
            <mxPoint x="820" y="90" as="sourcePoint" />
            <mxPoint x="790" y="90" as="targetPoint" />
          </mxGeometry>
        </mxCell>
        <mxCell id="Jl9rDmlM_b9wm3iLBG_Z-91" value="&lt;u&gt;idDepartment&lt;/u&gt;" style="ellipse;whiteSpace=wrap;html=1;" vertex="1" parent="1">
          <mxGeometry x="730" y="50" width="120" height="70" as="geometry" />
        </mxCell>
        <mxCell id="Jl9rDmlM_b9wm3iLBG_Z-92" value="Name" style="ellipse;whiteSpace=wrap;html=1;" vertex="1" parent="1">
          <mxGeometry x="850" y="105" width="70" height="50" as="geometry" />
        </mxCell>
        <mxCell id="Jl9rDmlM_b9wm3iLBG_Z-93" value="Dob" style="ellipse;whiteSpace=wrap;html=1;" vertex="1" parent="1">
          <mxGeometry x="860" y="160" width="70" height="50" as="geometry" />
        </mxCell>
        <mxCell id="Jl9rDmlM_b9wm3iLBG_Z-94" value="Gender" style="ellipse;whiteSpace=wrap;html=1;" vertex="1" parent="1">
          <mxGeometry x="840" y="250" width="70" height="50" as="geometry" />
        </mxCell>
        <mxCell id="Jl9rDmlM_b9wm3iLBG_Z-95" value="Email" style="ellipse;whiteSpace=wrap;html=1;" vertex="1" parent="1">
          <mxGeometry x="530" y="130" width="70" height="50" as="geometry" />
        </mxCell>
        <mxCell id="Jl9rDmlM_b9wm3iLBG_Z-96" value="Password" style="ellipse;whiteSpace=wrap;html=1;" vertex="1" parent="1">
          <mxGeometry x="520" y="195" width="70" height="50" as="geometry" />
        </mxCell>
        <mxCell id="Jl9rDmlM_b9wm3iLBG_Z-97" value="Position" style="ellipse;whiteSpace=wrap;html=1;" vertex="1" parent="1">
          <mxGeometry x="560" y="250" width="70" height="50" as="geometry" />
        </mxCell>
        <mxCell id="Jl9rDmlM_b9wm3iLBG_Z-98" value="" style="endArrow=none;html=1;rounded=0;exitX=0.75;exitY=0;exitDx=0;exitDy=0;entryX=0;entryY=0.5;entryDx=0;entryDy=0;" edge="1" parent="1" source="Jl9rDmlM_b9wm3iLBG_Z-4" target="Jl9rDmlM_b9wm3iLBG_Z-92">
          <mxGeometry width="50" height="50" relative="1" as="geometry">
            <mxPoint x="753" y="201" as="sourcePoint" />
            <mxPoint x="800" y="130" as="targetPoint" />
          </mxGeometry>
        </mxCell>
        <mxCell id="Jl9rDmlM_b9wm3iLBG_Z-99" value="" style="endArrow=none;html=1;rounded=0;exitX=1;exitY=0.25;exitDx=0;exitDy=0;entryX=0;entryY=0.5;entryDx=0;entryDy=0;" edge="1" parent="1" source="Jl9rDmlM_b9wm3iLBG_Z-4" target="Jl9rDmlM_b9wm3iLBG_Z-93">
          <mxGeometry width="50" height="50" relative="1" as="geometry">
            <mxPoint x="770" y="200" as="sourcePoint" />
            <mxPoint x="860" y="140" as="targetPoint" />
          </mxGeometry>
        </mxCell>
        <mxCell id="Jl9rDmlM_b9wm3iLBG_Z-100" value="" style="endArrow=none;html=1;rounded=0;exitX=1;exitY=1;exitDx=0;exitDy=0;entryX=0;entryY=0.5;entryDx=0;entryDy=0;" edge="1" parent="1" source="Jl9rDmlM_b9wm3iLBG_Z-4" target="Jl9rDmlM_b9wm3iLBG_Z-94">
          <mxGeometry width="50" height="50" relative="1" as="geometry">
            <mxPoint x="754" y="291" as="sourcePoint" />
            <mxPoint x="826" y="280" as="targetPoint" />
          </mxGeometry>
        </mxCell>
        <mxCell id="Jl9rDmlM_b9wm3iLBG_Z-101" value="" style="endArrow=none;html=1;rounded=0;exitX=1;exitY=1;exitDx=0;exitDy=0;entryX=0.167;entryY=0;entryDx=0;entryDy=0;entryPerimeter=0;" edge="1" parent="1" source="Jl9rDmlM_b9wm3iLBG_Z-95" target="Jl9rDmlM_b9wm3iLBG_Z-4">
          <mxGeometry width="50" height="50" relative="1" as="geometry">
            <mxPoint x="640" y="140" as="sourcePoint" />
            <mxPoint x="690" y="165" as="targetPoint" />
          </mxGeometry>
        </mxCell>
        <mxCell id="Jl9rDmlM_b9wm3iLBG_Z-102" value="" style="endArrow=none;html=1;rounded=0;exitX=1;exitY=0.5;exitDx=0;exitDy=0;entryX=0;entryY=0.25;entryDx=0;entryDy=0;" edge="1" parent="1" source="Jl9rDmlM_b9wm3iLBG_Z-96" target="Jl9rDmlM_b9wm3iLBG_Z-4">
          <mxGeometry width="50" height="50" relative="1" as="geometry">
            <mxPoint x="640" y="155" as="sourcePoint" />
            <mxPoint x="690" y="222" as="targetPoint" />
          </mxGeometry>
        </mxCell>
        <mxCell id="Jl9rDmlM_b9wm3iLBG_Z-103" value="" style="endArrow=none;html=1;rounded=0;exitX=1;exitY=0.5;exitDx=0;exitDy=0;entryX=0;entryY=0.5;entryDx=0;entryDy=0;" edge="1" parent="1" source="Jl9rDmlM_b9wm3iLBG_Z-97" target="Jl9rDmlM_b9wm3iLBG_Z-4">
          <mxGeometry width="50" height="50" relative="1" as="geometry">
            <mxPoint x="610" y="215" as="sourcePoint" />
            <mxPoint x="680" y="255" as="targetPoint" />
          </mxGeometry>
        </mxCell>
        <mxCell id="Jl9rDmlM_b9wm3iLBG_Z-105" value="&lt;u&gt;idDepartment&lt;/u&gt;" style="ellipse;whiteSpace=wrap;html=1;" vertex="1" parent="1">
          <mxGeometry x="200" y="463" width="120" height="70" as="geometry" />
        </mxCell>
        <mxCell id="Jl9rDmlM_b9wm3iLBG_Z-106" value="Name" style="ellipse;whiteSpace=wrap;html=1;" vertex="1" parent="1">
          <mxGeometry x="320" y="518" width="70" height="50" as="geometry" />
        </mxCell>
        <mxCell id="Jl9rDmlM_b9wm3iLBG_Z-107" value="Dob" style="ellipse;whiteSpace=wrap;html=1;" vertex="1" parent="1">
          <mxGeometry x="320" y="628" width="70" height="50" as="geometry" />
        </mxCell>
        <mxCell id="Jl9rDmlM_b9wm3iLBG_Z-108" value="Gender" style="ellipse;whiteSpace=wrap;html=1;" vertex="1" parent="1">
          <mxGeometry x="270" y="670" width="70" height="50" as="geometry" />
        </mxCell>
        <mxCell id="Jl9rDmlM_b9wm3iLBG_Z-109" value="Email" style="ellipse;whiteSpace=wrap;html=1;" vertex="1" parent="1">
          <mxGeometry x="100" y="463" width="70" height="50" as="geometry" />
        </mxCell>
        <mxCell id="Jl9rDmlM_b9wm3iLBG_Z-110" value="Password" style="ellipse;whiteSpace=wrap;html=1;" vertex="1" parent="1">
          <mxGeometry x="30" y="485" width="70" height="50" as="geometry" />
        </mxCell>
        <mxCell id="Jl9rDmlM_b9wm3iLBG_Z-111" value="Position" style="ellipse;whiteSpace=wrap;html=1;" vertex="1" parent="1">
          <mxGeometry x="-20" y="633" width="70" height="50" as="geometry" />
        </mxCell>
        <mxCell id="Jl9rDmlM_b9wm3iLBG_Z-112" value="" style="endArrow=none;html=1;rounded=0;exitX=0.833;exitY=-0.038;exitDx=0;exitDy=0;exitPerimeter=0;entryX=0.378;entryY=0.993;entryDx=0;entryDy=0;entryPerimeter=0;" edge="1" parent="1" source="Jl9rDmlM_b9wm3iLBG_Z-9" target="Jl9rDmlM_b9wm3iLBG_Z-105">
          <mxGeometry width="50" height="50" relative="1" as="geometry">
            <mxPoint x="240" y="450" as="sourcePoint" />
            <mxPoint x="290" y="400" as="targetPoint" />
          </mxGeometry>
        </mxCell>
        <mxCell id="Jl9rDmlM_b9wm3iLBG_Z-113" value="" style="endArrow=none;html=1;rounded=0;exitX=1;exitY=0;exitDx=0;exitDy=0;entryX=0;entryY=0.5;entryDx=0;entryDy=0;" edge="1" parent="1" source="Jl9rDmlM_b9wm3iLBG_Z-9" target="Jl9rDmlM_b9wm3iLBG_Z-106">
          <mxGeometry width="50" height="50" relative="1" as="geometry">
            <mxPoint x="267.5" y="587.5" as="sourcePoint" />
            <mxPoint x="292.5" y="542.5" as="targetPoint" />
          </mxGeometry>
        </mxCell>
        <mxCell id="Jl9rDmlM_b9wm3iLBG_Z-114" value="" style="endArrow=none;html=1;rounded=0;exitX=1;exitY=0.75;exitDx=0;exitDy=0;entryX=0;entryY=0;entryDx=0;entryDy=0;" edge="1" parent="1" source="Jl9rDmlM_b9wm3iLBG_Z-9" target="Jl9rDmlM_b9wm3iLBG_Z-107">
          <mxGeometry width="50" height="50" relative="1" as="geometry">
            <mxPoint x="250" y="590" as="sourcePoint" />
            <mxPoint x="330" y="553" as="targetPoint" />
          </mxGeometry>
        </mxCell>
        <mxCell id="Jl9rDmlM_b9wm3iLBG_Z-115" value="" style="endArrow=none;html=1;rounded=0;exitX=1;exitY=1;exitDx=0;exitDy=0;entryX=0.5;entryY=0;entryDx=0;entryDy=0;" edge="1" parent="1" source="Jl9rDmlM_b9wm3iLBG_Z-9" target="Jl9rDmlM_b9wm3iLBG_Z-108">
          <mxGeometry width="50" height="50" relative="1" as="geometry">
            <mxPoint x="250" y="635" as="sourcePoint" />
            <mxPoint x="330" y="645" as="targetPoint" />
          </mxGeometry>
        </mxCell>
        <mxCell id="Jl9rDmlM_b9wm3iLBG_Z-116" value="" style="endArrow=none;html=1;rounded=0;exitX=0.734;exitY=0.96;exitDx=0;exitDy=0;entryX=0.25;entryY=0;entryDx=0;entryDy=0;exitPerimeter=0;" edge="1" parent="1" source="Jl9rDmlM_b9wm3iLBG_Z-109" target="Jl9rDmlM_b9wm3iLBG_Z-9">
          <mxGeometry width="50" height="50" relative="1" as="geometry">
            <mxPoint x="45" y="480" as="sourcePoint" />
            <mxPoint x="125" y="490" as="targetPoint" />
          </mxGeometry>
        </mxCell>
        <mxCell id="Jl9rDmlM_b9wm3iLBG_Z-117" value="" style="endArrow=none;html=1;rounded=0;exitX=1;exitY=1;exitDx=0;exitDy=0;entryX=0.169;entryY=0.021;entryDx=0;entryDy=0;entryPerimeter=0;" edge="1" parent="1" source="Jl9rDmlM_b9wm3iLBG_Z-110" target="Jl9rDmlM_b9wm3iLBG_Z-9">
          <mxGeometry width="50" height="50" relative="1" as="geometry">
            <mxPoint x="100" y="551" as="sourcePoint" />
            <mxPoint x="160" y="590" as="targetPoint" />
          </mxGeometry>
        </mxCell>
        <mxCell id="Jl9rDmlM_b9wm3iLBG_Z-118" value="" style="endArrow=none;html=1;rounded=0;exitX=1;exitY=0.5;exitDx=0;exitDy=0;" edge="1" parent="1" source="Jl9rDmlM_b9wm3iLBG_Z-111">
          <mxGeometry width="50" height="50" relative="1" as="geometry">
            <mxPoint x="40" y="730" as="sourcePoint" />
            <mxPoint x="120" y="630" as="targetPoint" />
          </mxGeometry>
        </mxCell>
        <mxCell id="Jl9rDmlM_b9wm3iLBG_Z-119" value="&lt;u&gt;Id&lt;/u&gt;" style="ellipse;whiteSpace=wrap;html=1;" vertex="1" parent="1">
          <mxGeometry x="570" y="663" width="70" height="50" as="geometry" />
        </mxCell>
        <mxCell id="Jl9rDmlM_b9wm3iLBG_Z-120" value="nameManager" style="ellipse;whiteSpace=wrap;html=1;" vertex="1" parent="1">
          <mxGeometry x="670" y="683" width="100" height="60" as="geometry" />
        </mxCell>
        <mxCell id="Jl9rDmlM_b9wm3iLBG_Z-121" value="nameDepartment" style="ellipse;whiteSpace=wrap;html=1;" vertex="1" parent="1">
          <mxGeometry x="795" y="683" width="115" height="57" as="geometry" />
        </mxCell>
        <mxCell id="Jl9rDmlM_b9wm3iLBG_Z-122" value="" style="endArrow=none;html=1;rounded=0;entryX=0.5;entryY=1;entryDx=0;entryDy=0;exitX=0.931;exitY=0.308;exitDx=0;exitDy=0;exitPerimeter=0;" edge="1" parent="1" source="Jl9rDmlM_b9wm3iLBG_Z-119" target="Jl9rDmlM_b9wm3iLBG_Z-15">
          <mxGeometry width="50" height="50" relative="1" as="geometry">
            <mxPoint x="480" y="710" as="sourcePoint" />
            <mxPoint x="530" y="660" as="targetPoint" />
          </mxGeometry>
        </mxCell>
        <mxCell id="Jl9rDmlM_b9wm3iLBG_Z-123" value="" style="endArrow=none;html=1;rounded=0;entryX=0.5;entryY=1;entryDx=0;entryDy=0;exitX=0.5;exitY=0;exitDx=0;exitDy=0;" edge="1" parent="1" source="Jl9rDmlM_b9wm3iLBG_Z-120" target="Jl9rDmlM_b9wm3iLBG_Z-15">
          <mxGeometry width="50" height="50" relative="1" as="geometry">
            <mxPoint x="645" y="688" as="sourcePoint" />
            <mxPoint x="740" y="650" as="targetPoint" />
          </mxGeometry>
        </mxCell>
        <mxCell id="Jl9rDmlM_b9wm3iLBG_Z-124" value="" style="endArrow=none;html=1;rounded=0;entryX=0.5;entryY=1;entryDx=0;entryDy=0;exitX=0.35;exitY=-0.007;exitDx=0;exitDy=0;exitPerimeter=0;" edge="1" parent="1" source="Jl9rDmlM_b9wm3iLBG_Z-121" target="Jl9rDmlM_b9wm3iLBG_Z-15">
          <mxGeometry width="50" height="50" relative="1" as="geometry">
            <mxPoint x="770" y="693" as="sourcePoint" />
            <mxPoint x="780" y="650" as="targetPoint" />
          </mxGeometry>
        </mxCell>
        <mxCell id="Jl9rDmlM_b9wm3iLBG_Z-125" value="&lt;u&gt;Id&lt;/u&gt;" style="ellipse;whiteSpace=wrap;html=1;" vertex="1" parent="1">
          <mxGeometry x="-590" y="633" width="70" height="50" as="geometry" />
        </mxCell>
        <mxCell id="Jl9rDmlM_b9wm3iLBG_Z-126" value="Types" style="ellipse;whiteSpace=wrap;html=1;" vertex="1" parent="1">
          <mxGeometry x="-460" y="720" width="70" height="50" as="geometry" />
        </mxCell>
        <mxCell id="Jl9rDmlM_b9wm3iLBG_Z-127" value="" style="endArrow=none;html=1;rounded=0;exitX=1;exitY=0;exitDx=0;exitDy=0;entryX=0;entryY=0.5;entryDx=0;entryDy=0;" edge="1" parent="1" source="Jl9rDmlM_b9wm3iLBG_Z-125" target="Jl9rDmlM_b9wm3iLBG_Z-24">
          <mxGeometry width="50" height="50" relative="1" as="geometry">
            <mxPoint x="-600" y="520" as="sourcePoint" />
            <mxPoint x="-550" y="470" as="targetPoint" />
          </mxGeometry>
        </mxCell>
        <mxCell id="Jl9rDmlM_b9wm3iLBG_Z-128" value="" style="endArrow=none;html=1;rounded=0;exitX=1;exitY=0;exitDx=0;exitDy=0;entryX=0.5;entryY=1;entryDx=0;entryDy=0;" edge="1" parent="1" source="Jl9rDmlM_b9wm3iLBG_Z-126" target="Jl9rDmlM_b9wm3iLBG_Z-24">
          <mxGeometry width="50" height="50" relative="1" as="geometry">
            <mxPoint x="-340" y="693" as="sourcePoint" />
            <mxPoint x="-240" y="663" as="targetPoint" />
          </mxGeometry>
        </mxCell>
        <mxCell id="Jl9rDmlM_b9wm3iLBG_Z-129" value="&lt;u&gt;idRequest&lt;/u&gt;" style="ellipse;whiteSpace=wrap;html=1;" vertex="1" parent="1">
          <mxGeometry x="60" y="693" width="90" height="57" as="geometry" />
        </mxCell>
        <mxCell id="Jl9rDmlM_b9wm3iLBG_Z-130" value="" style="endArrow=none;html=1;rounded=0;" edge="1" parent="1">
          <mxGeometry width="50" height="50" relative="1" as="geometry">
            <mxPoint x="75" y="730" as="sourcePoint" />
            <mxPoint x="130" y="730" as="targetPoint" />
          </mxGeometry>
        </mxCell>
        <mxCell id="Jl9rDmlM_b9wm3iLBG_Z-131" value="" style="endArrow=none;html=1;rounded=0;entryX=0.333;entryY=1;entryDx=0;entryDy=0;entryPerimeter=0;exitX=0.744;exitY=0.056;exitDx=0;exitDy=0;exitPerimeter=0;" edge="1" parent="1" source="Jl9rDmlM_b9wm3iLBG_Z-129" target="Jl9rDmlM_b9wm3iLBG_Z-9">
          <mxGeometry width="50" height="50" relative="1" as="geometry">
            <mxPoint x="120" y="690" as="sourcePoint" />
            <mxPoint x="-110" y="750" as="targetPoint" />
          </mxGeometry>
        </mxCell>
        <mxCell id="Jl9rDmlM_b9wm3iLBG_Z-132" value="&lt;u&gt;idRequest&lt;/u&gt;" style="ellipse;whiteSpace=wrap;html=1;" vertex="1" parent="1">
          <mxGeometry x="620" y="296.5" width="90" height="57" as="geometry" />
        </mxCell>
        <mxCell id="Jl9rDmlM_b9wm3iLBG_Z-133" value="" style="endArrow=none;html=1;rounded=0;" edge="1" parent="1">
          <mxGeometry width="50" height="50" relative="1" as="geometry">
            <mxPoint x="635" y="333.5" as="sourcePoint" />
            <mxPoint x="690" y="333.5" as="targetPoint" />
            <Array as="points">
              <mxPoint x="690" y="333.5" />
            </Array>
          </mxGeometry>
        </mxCell>
        <mxCell id="Jl9rDmlM_b9wm3iLBG_Z-134" value="" style="endArrow=none;html=1;rounded=0;exitX=0.767;exitY=0.035;exitDx=0;exitDy=0;entryX=0.25;entryY=1;entryDx=0;entryDy=0;exitPerimeter=0;" edge="1" parent="1" source="Jl9rDmlM_b9wm3iLBG_Z-132" target="Jl9rDmlM_b9wm3iLBG_Z-4">
          <mxGeometry width="50" height="50" relative="1" as="geometry">
            <mxPoint x="610" y="280" as="sourcePoint" />
            <mxPoint x="670" y="255" as="targetPoint" />
          </mxGeometry>
        </mxCell>
        <mxCell id="Jl9rDmlM_b9wm3iLBG_Z-135" value="" style="endArrow=none;html=1;rounded=0;" edge="1" parent="1">
          <mxGeometry width="50" height="50" relative="1" as="geometry">
            <mxPoint x="755" y="93.37000000000002" as="sourcePoint" />
            <mxPoint x="825" y="93.37000000000002" as="targetPoint" />
          </mxGeometry>
        </mxCell>
        <mxCell id="Jl9rDmlM_b9wm3iLBG_Z-136" value="&lt;u&gt;Id&lt;/u&gt;" style="ellipse;whiteSpace=wrap;html=1;" vertex="1" parent="1">
          <mxGeometry x="770" y="293" width="70" height="50" as="geometry" />
        </mxCell>
        <mxCell id="Jl9rDmlM_b9wm3iLBG_Z-137" value="" style="endArrow=none;html=1;rounded=0;exitX=0.842;exitY=1.044;exitDx=0;exitDy=0;entryX=0.35;entryY=0.052;entryDx=0;entryDy=0;exitPerimeter=0;entryPerimeter=0;" edge="1" parent="1" source="Jl9rDmlM_b9wm3iLBG_Z-4" target="Jl9rDmlM_b9wm3iLBG_Z-136">
          <mxGeometry width="50" height="50" relative="1" as="geometry">
            <mxPoint x="800" y="260" as="sourcePoint" />
            <mxPoint x="850" y="285" as="targetPoint" />
          </mxGeometry>
        </mxCell>
        <mxCell id="Jl9rDmlM_b9wm3iLBG_Z-138" value="&lt;u&gt;Id&lt;/u&gt;" style="ellipse;whiteSpace=wrap;html=1;" vertex="1" parent="1">
          <mxGeometry x="200" y="713" width="70" height="50" as="geometry" />
        </mxCell>
        <mxCell id="Jl9rDmlM_b9wm3iLBG_Z-139" value="" style="endArrow=none;html=1;rounded=0;entryX=0.85;entryY=1.004;entryDx=0;entryDy=0;entryPerimeter=0;exitX=0.5;exitY=0;exitDx=0;exitDy=0;" edge="1" parent="1" source="Jl9rDmlM_b9wm3iLBG_Z-138" target="Jl9rDmlM_b9wm3iLBG_Z-9">
          <mxGeometry width="50" height="50" relative="1" as="geometry">
            <mxPoint x="137" y="706" as="sourcePoint" />
            <mxPoint x="170" y="650" as="targetPoint" />
          </mxGeometry>
        </mxCell>
        <mxCell id="Jl9rDmlM_b9wm3iLBG_Z-140" value="Status" style="ellipse;whiteSpace=wrap;html=1;" vertex="1" parent="1">
          <mxGeometry x="-40" y="535" width="70" height="50" as="geometry" />
        </mxCell>
        <mxCell id="Jl9rDmlM_b9wm3iLBG_Z-141" value="" style="endArrow=none;html=1;rounded=0;exitX=1;exitY=0.5;exitDx=0;exitDy=0;entryX=1.105;entryY=-0.071;entryDx=0;entryDy=0;entryPerimeter=0;" edge="1" parent="1" source="Jl9rDmlM_b9wm3iLBG_Z-140" target="Jl9rDmlM_b9wm3iLBG_Z-28">
          <mxGeometry width="50" height="50" relative="1" as="geometry">
            <mxPoint x="100" y="538" as="sourcePoint" />
            <mxPoint x="150" y="591" as="targetPoint" />
          </mxGeometry>
        </mxCell>
        <mxCell id="Jl9rDmlM_b9wm3iLBG_Z-143" value="Status" style="ellipse;whiteSpace=wrap;html=1;" vertex="1" parent="1">
          <mxGeometry x="590" y="80" width="70" height="50" as="geometry" />
        </mxCell>
        <mxCell id="Jl9rDmlM_b9wm3iLBG_Z-144" value="" style="endArrow=none;html=1;rounded=0;exitX=0.727;exitY=0.997;exitDx=0;exitDy=0;exitPerimeter=0;" edge="1" parent="1" source="Jl9rDmlM_b9wm3iLBG_Z-143">
          <mxGeometry width="50" height="50" relative="1" as="geometry">
            <mxPoint x="600" y="183" as="sourcePoint" />
            <mxPoint x="680" y="190" as="targetPoint" />
          </mxGeometry>
        </mxCell>
        <mxCell id="Jl9rDmlM_b9wm3iLBG_Z-145" value="DayOfTheWeek" style="ellipse;whiteSpace=wrap;html=1;" vertex="1" parent="1">
          <mxGeometry x="405" y="1100" width="115" height="50" as="geometry" />
        </mxCell>
        <mxCell id="Jl9rDmlM_b9wm3iLBG_Z-146" value="" style="endArrow=none;html=1;rounded=0;entryX=1;entryY=1;entryDx=0;entryDy=0;" edge="1" parent="1" source="Jl9rDmlM_b9wm3iLBG_Z-145" target="Jl9rDmlM_b9wm3iLBG_Z-39">
          <mxGeometry width="50" height="50" relative="1" as="geometry">
            <mxPoint x="380" y="1120" as="sourcePoint" />
            <mxPoint x="280" y="1043" as="targetPoint" />
          </mxGeometry>
        </mxCell>
        <mxCell id="Jl9rDmlM_b9wm3iLBG_Z-149" value="&lt;u&gt;idDepartment&lt;/u&gt;" style="ellipse;whiteSpace=wrap;html=1;" vertex="1" parent="1">
          <mxGeometry x="-130" y="1100" width="100" height="50" as="geometry" />
        </mxCell>
        <mxCell id="Jl9rDmlM_b9wm3iLBG_Z-150" value="" style="endArrow=none;html=1;rounded=0;" edge="1" parent="1">
          <mxGeometry width="50" height="50" relative="1" as="geometry">
            <mxPoint x="-111" y="1133" as="sourcePoint" />
            <mxPoint x="-51" y="1133" as="targetPoint" />
          </mxGeometry>
        </mxCell>
        <mxCell id="Jl9rDmlM_b9wm3iLBG_Z-152" value="" style="endArrow=none;html=1;rounded=0;entryX=0;entryY=1;entryDx=0;entryDy=0;exitX=1;exitY=0;exitDx=0;exitDy=0;" edge="1" parent="1" source="Jl9rDmlM_b9wm3iLBG_Z-149" target="Jl9rDmlM_b9wm3iLBG_Z-39">
          <mxGeometry width="50" height="50" relative="1" as="geometry">
            <mxPoint x="50" y="1130" as="sourcePoint" />
            <mxPoint x="190" y="1060" as="targetPoint" />
          </mxGeometry>
        </mxCell>
      </root>
    </mxGraphModel>
  </diagram>
</mxfile>
